HIERARCHY
ROOT hip
{
  OFFSET 0 0 0
  CHANNELS 6 Xposition Yposition Zposition Zrotation Yrotation Xrotation
  JOINT abdomen
  {
    OFFSET 0 20.6881 -0.73152
    CHANNELS 3 Zrotation Xrotation Yrotation
    JOINT chest
    {
      OFFSET 0 11.7043 -0.48768
      CHANNELS 3 Zrotation Xrotation Yrotation
      JOINT neck
      {
        OFFSET 0 22.1894 -2.19456
        CHANNELS 3 Zrotation Xrotation Yrotation
        JOINT head
        {
          OFFSET -0.24384 7.07133 1.2192
          CHANNELS 3 Zrotation Xrotation Yrotation
          JOINT leftEye
          {
            OFFSET 4.14528 8.04674 8.04672
            CHANNELS 3 Zrotation Xrotation Yrotation
            End Site
            {
              OFFSET 1 0 0
            }
          }
          JOINT rightEye
          {
            OFFSET -3.6576 8.04674 8.04672
            CHANNELS 3 Zrotation Xrotation Yrotation
            End Site
            {
              OFFSET 1 0 0
            }
          }
        }
      }
      JOINT rCollar
      {
        OFFSET -2.68224 19.2634 -4.8768
        CHANNELS 3 Zrotation Xrotation Yrotation
        JOINT rShldr
        {
          OFFSET -8.77824 -1.95073 1.46304
          CHANNELS 3 Zrotation Xrotation Yrotation
          JOINT rForeArm
          {
            OFFSET -28.1742 -1.7115 0.48768
            CHANNELS 3 Zrotation Xrotation Yrotation
            JOINT rHand
            {
              OFFSET -22.5879 0.773209 7.07136
              CHANNELS 3 Zrotation Xrotation Yrotation
              JOINT rThumb1
              {
                OFFSET -1.2192 -0.487915 3.41376
                CHANNELS 3 Zrotation Xrotation Yrotation
                JOINT rThumb2
                {
                  OFFSET -3.37035 -0.52449 3.41376
                  CHANNELS 3 Zrotation Xrotation Yrotation
                  End Site
                  {
                    OFFSET -1.78271 -1.18214 1.43049
                  }
                }
              }
              JOINT rIndex1
              {
                OFFSET -7.75947 0.938293 5.60832
                CHANNELS 3 Zrotation Xrotation Yrotation
                JOINT rIndex2
                {
                  OFFSET -2.54057 -0.884171 1.56538
                  CHANNELS 3 Zrotation Xrotation Yrotation
                  End Site
                  {
                    OFFSET -1.62519 -0.234802 1.16502
                  }
                }
              }
              JOINT rMid1
              {
                OFFSET -8.24714 1.18213 3.41376
                CHANNELS 3 Zrotation Xrotation Yrotation
                JOINT rMid2
                {
                  OFFSET -3.10165 -0.590103 1.0647
                  CHANNELS 3 Zrotation Xrotation Yrotation
                  End Site
                  {
                    OFFSET -2.48547 -0.328903 0.83742
                  }
                }
              }
              JOINT rRing1
              {
                OFFSET -8.82822 0.546677 1.51678
                CHANNELS 3 Zrotation Xrotation Yrotation
                JOINT rRing2
                {
                  OFFSET -2.60934 -0.819778 -0.0198488
                  CHANNELS 3 Zrotation Xrotation Yrotation
                  End Site
                  {
                    OFFSET -2.33842 -0.294052 0.168128
                  }
                }
              }
              JOINT rPinky1
              {
                OFFSET -8.27202 -0.0477905 -0.4584
                CHANNELS 3 Zrotation Xrotation Yrotation
                JOINT rPinky2
                {
                  OFFSET -1.82734 -0.647385 -0.700984
                  CHANNELS 3 Zrotation Xrotation Yrotation
                  End Site
                  {
                    OFFSET -1.69225 -0.51767 -0.607171
                  }
                }
              }
            }
          }
        }
      }
      JOINT lCollar
      {
        OFFSET 2.68224 19.2634 -4.8768
        CHANNELS 3 Zrotation Xrotation Yrotation
        JOINT lShldr
        {
          OFFSET 8.77824 -1.95073 1.46304
          CHANNELS 3 Zrotation Xrotation Yrotation
          JOINT lForeArm
          {
            OFFSET 28.1742 -1.7115 0.48768
            CHANNELS 3 Zrotation Xrotation Yrotation
            JOINT lHand
            {
              OFFSET 22.5879 0.773209 7.07136
              CHANNELS 3 Zrotation Xrotation Yrotation
              JOINT lThumb1
              {
                OFFSET 1.2192 -0.487915 3.41376
                CHANNELS 3 Zrotation Xrotation Yrotation
                JOINT lThumb2
                {
                  OFFSET 3.37035 -0.52449 3.41376
                  CHANNELS 3 Zrotation Xrotation Yrotation
                  End Site
                  {
                    OFFSET 1.78271 -1.18214 1.43049
                  }
                }
              }
              JOINT lIndex1
              {
                OFFSET 7.75947 0.938293 5.60832
                CHANNELS 3 Zrotation Xrotation Yrotation
                JOINT lIndex2
                {
                  OFFSET 2.54057 -0.884171 1.56538
                  CHANNELS 3 Zrotation Xrotation Yrotation
                  End Site
                  {
                    OFFSET 1.62519 -0.234802 1.16502
                  }
                }
              }
              JOINT lMid1
              {
                OFFSET 8.24714 1.18213 3.41376
                CHANNELS 3 Zrotation Xrotation Yrotation
                JOINT lMid2
                {
                  OFFSET 3.10165 -0.590103 1.0647
                  CHANNELS 3 Zrotation Xrotation Yrotation
                  End Site
                  {
                    OFFSET 2.48547 -0.328903 0.83742
                  }
                }
              }
              JOINT lRing1
              {
                OFFSET 8.82822 0.546677 1.51678
                CHANNELS 3 Zrotation Xrotation Yrotation
                JOINT lRing2
                {
                  OFFSET 2.60934 -0.819778 -0.0198488
                  CHANNELS 3 Zrotation Xrotation Yrotation
                  End Site
                  {
                    OFFSET 2.33842 -0.294052 0.168128
                  }
                }
              }
              JOINT lPinky1
              {
                OFFSET 8.27202 -0.0477905 -0.4584
                CHANNELS 3 Zrotation Xrotation Yrotation
                JOINT lPinky2
                {
                  OFFSET 1.82734 -0.647385 -0.700984
                  CHANNELS 3 Zrotation Xrotation Yrotation
                  End Site
                  {
                    OFFSET 1.69225 -0.51767 -0.607171
                  }
                }
              }
            }
          }
        }
      }
    }
  }
  JOINT rButtock
  {
    OFFSET -8.77824 4.35084 1.2192
    CHANNELS 3 Zrotation Xrotation Yrotation
    JOINT rThigh
    {
      OFFSET 0 -1.70687 -2.19456
      CHANNELS 3 Zrotation Xrotation Yrotation
      JOINT rShin
      {
        OFFSET 0 -36.8199 0.73152
        CHANNELS 3 Zrotation Xrotation Yrotation
        JOINT rFoot
        {
          OFFSET 0.73152 -45.1104 -5.12064
          CHANNELS 3 Zrotation Xrotation Yrotation
          End Site
          {
            OFFSET -1.1221 -3.69964 12.103
          }
        }
      }
    }
  }
  JOINT lButtock
  {
    OFFSET 8.77824 4.35084 1.2192
    CHANNELS 3 Zrotation Xrotation Yrotation
    JOINT lThigh
    {
      OFFSET 0 -1.70687 -2.19456
      CHANNELS 3 Zrotation Xrotation Yrotation
      JOINT lShin
      {
        OFFSET 0 -36.8199 0.73152
        CHANNELS 3 Zrotation Xrotation Yrotation
        JOINT lFoot
        {
          OFFSET -0.73152 -45.1104 -5.12064
          CHANNELS 3 Zrotation Xrotation Yrotation
          End Site
          {
            OFFSET 1.1221 -3.69964 12.103
          }
        }
      }
    }
  }
}
MOTION
Frames:	7
Frame Time:	0.00833333
-40.7622 83.5758 54.0341 200.641 149.948 194.116 -23.1195 -21.3912 -7.24806 0.39054 -0.583954 -0.559502 -5.19763 4.26082 -5.76102 11.844 23.2391 -12.3271 -0.0 0.0 0.0 -0.0 0.0 0.0 3.85631e-13 -1.30839e-13 3.27534e-13 -79.7561 -70.6208 -123.66 -6.02294 -2.05376 10.527 -156.984 57.4827 167.254 -1.88019e-09 1.25697e-09 1.24222e-11 -3.10936e-09 2.09834e-09 2.48001e-10 -1.88019e-09 1.25697e-09 1.24261e-11 7.73091 5.47488 0.417314 -1.88019e-09 1.25697e-09 1.24319e-11 2.90554 0.965183 0.102902 -1.88019e-09 1.25697e-09 1.24338e-11 10.2786 0.731801 0.0259123 -1.8802e-09 1.25698e-09 1.24422e-11 2.22167 -0.733487 -0.20892 3.85516e-13 -1.30837e-13 3.27292e-13 -17.4955 1.65454 2.15343 8.21796 -3.12649 -14.4998 5.00031 51.7844 -10.2814 -4.1258e-09 -7.22919e-11 3.37224e-09 -6.95439e-09 -1.47228e-10 5.9711e-09 -4.12581e-09 -7.22882e-11 3.37225e-09 -7.73091 5.47488 -0.417314 -4.1258e-09 -7.22902e-11 3.37224e-09 -2.90554 0.965183 -0.102902 -4.12581e-09 -7.229e-11 3.37224e-09 -10.2786 0.731801 -0.0259123 -4.1258e-09 -7.22903e-11 3.37224e-09 -2.22167 -0.733487 0.20892 -2.03217e-16 0.0 -3.88251e-19 15.635 -33.2233 15.6815 -0.553491 47.7437 0.814598 -21.0478 -23.4097 -37.3594 2.03217e-16 0.0 3.88251e-19 32.4905 -14.2374 2.25775 0.398451 45.9609 -1.24806 20.5025 -31.6043 30.1285
-41.2787 82.2801 54.495 199.386 152.212 194.222 -21.3843 -21.5328 -6.52235 -0.487925 -1.17708 -0.494174 -4.82275 3.6453 -5.33797 11.6874 23.5392 -11.5534 -0.0 0.0 0.0 -0.0 0.0 0.0 3.64761e-13 -7.65596e-15 6.10595e-13 -80.1161 -71.9308 -124.666 -5.96127 -2.02599 10.417 -156.851 57.7472 167.102 -2.54363e-09 1.79268e-09 -2.17894e-10 -4.23904e-09 3.07676e-09 -3.68144e-11 -2.54362e-09 1.79267e-09 -2.1789e-10 7.73091 5.47488 0.417314 -2.54363e-09 1.79268e-09 -2.17885e-10 2.90554 0.965183 0.102902 -2.54363e-09 1.79268e-09 -2.17886e-10 10.2786 0.731801 0.0259123 -2.54364e-09 1.79268e-09 -2.17879e-10 2.22167 -0.733487 -0.20892 3.64631e-13 -7.65096e-15 6.10368e-13 -18.7685 0.343392 0.854327 8.17161 -3.102 -14.4148 5.28089 52.7179 -10.6367 -6.46587e-09 -5.19892e-10 2.86617e-09 -1.0995e-08 -8.86128e-10 5.20245e-09 -6.46587e-09 -5.19888e-10 2.86619e-09 -7.73091 5.47488 -0.417314 -6.46587e-09 -5.19889e-10 2.86617e-09 -2.90554 0.965183 -0.102902 -6.46588e-09 -5.19888e-10 2.86617e-09 -10.2786 0.731801 -0.0259123 -6.46587e-09 -5.19888e-10 2.86616e-09 -2.22167 -0.733487 0.20892 -2.03217e-16 0.0 -3.88251e-19 14.408 -36.539 15.0685 -0.668357 51.1499 0.950737 -20.9418 -23.7527 -36.6715 2.03217e-16 0.0 3.88251e-19 31.5954 -16.4091 0.328138 0.400906 45.9844 -1.23085 20.3275 -29.3262 31.3763
-41.6375 81.0405 54.9675 197.932 154.444 193.88 -19.3652 -21.3529 -5.65493 -1.42586 -1.75969 -0.422043 -4.45688 3.12814 -4.9243 11.5984 23.597 -10.7889 -0.0 0.0 0.0 -0.0 0.0 0.0 3.17797e-13 1.25715e-13 8.66719e-13 -79.2156 -73.4635 -124.381 -5.88502 -1.99221 10.2808 -156.536 58.4588 166.731 -3.09188e-09 2.24131e-09 -4.43304e-10 -5.17608e-09 3.90434e-09 -3.27824e-10 -3.09186e-09 2.2413e-09 -4.433e-10 7.73091 5.47488 0.417314 -3.09188e-09 2.2413e-09 -4.43296e-10 2.90554 0.965183 0.102902 -3.09188e-09 2.2413e-09 -4.43298e-10 10.2786 0.731801 0.0259123 -3.09188e-09 2.24131e-09 -4.43294e-10 2.22167 -0.733487 -0.20892 3.17657e-13 1.25722e-13 8.66509e-13 -20.1838 -1.11436 -0.572899 8.11177 -3.07047 -14.3051 5.66102 53.8968 -11.1103 -8.57867e-09 -8.26428e-10 2.1856e-09 -1.4652e-08 -1.3795e-09 4.12433e-09 -8.57867e-09 -8.26422e-10 2.18563e-09 -7.73091 5.47488 -0.417314 -8.57867e-09 -8.26423e-10 2.18561e-09 -2.90554 0.965183 -0.102902 -8.57867e-09 -8.26422e-10 2.18561e-09 -10.2786 0.731801 -0.0259123 -8.57867e-09 -8.26422e-10 2.1856e-09 -2.22167 -0.733487 0.20892 -2.03217e-16 0.0 -3.88251e-19 13.0895 -39.5339 14.523 -0.800676 54.4612 1.09331 -20.4309 -23.7255 -35.7139 2.03217e-16 0.0 3.88251e-19 30.6379 -18.539 -1.76793 0.412648 46.1755 -1.20196 19.9461 -26.3263 32.9602
-41.8274 79.9702 55.5254 196.367 156.137 192.767 -17.4044 -20.8196 -4.75643 -2.23333 -2.25538 -0.344514 -4.1833 2.67144 -4.5027 11.5107 23.4869 -9.97171 -0.0 0.0 0.0 -0.0 0.0 0.0 2.70447e-13 2.06731e-13 9.70218e-13 -74.4668 -75.5251 -120.077 -5.77832 -1.94584 10.0897 -155.856 59.9643 165.932 -3.12254e-09 2.27423e-09 -5.36645e-10 -5.2371e-09 4.00355e-09 -4.65418e-10 -3.12252e-09 2.27422e-09 -5.36642e-10 7.73091 5.47488 0.417314 -3.12254e-09 2.27423e-09 -5.36639e-10 2.90554 0.965183 0.102902 -3.12254e-09 2.27423e-09 -5.36642e-10 10.2786 0.731801 0.0259123 -3.12254e-09 2.27423e-09 -5.36639e-10 2.22167 -0.733487 -0.20892 2.70315e-13 2.06741e-13 9.7002e-13 -21.769 -2.19463 -2.12342 8.07791 -3.05264 -14.2431 6.05071 55.0231 -11.5887 -9.34918e-09 -9.47338e-10 1.72414e-09 -1.59929e-08 -1.56874e-09 3.36552e-09 -9.34919e-09 -9.47333e-10 1.72416e-09 -7.73091 5.47488 -0.417314 -9.34918e-09 -9.47332e-10 1.72414e-09 -2.90554 0.965183 -0.102902 -9.34919e-09 -9.47332e-10 1.72414e-09 -10.2786 0.731801 -0.0259123 -9.34918e-09 -9.47331e-10 1.72413e-09 -2.22167 -0.733487 0.20892 -2.03217e-16 0.0 -3.88251e-19 11.6892 -41.6473 13.9767 -0.92666 57.1056 1.23465 -20.0889 -23.8961 -34.8833 2.03217e-16 0.0 3.88251e-19 29.5351 -20.3438 -3.58202 0.42441 46.3526 -1.16859 19.1456 -23.6205 33.9744
-41.906 78.9958 56.0781 195.009 157.881 191.699 -15.4193 -19.7802 -3.76719 -2.9047 -2.6117 -0.253053 -4.07328 2.24627 -4.06492 11.4389 23.1818 -9.07293 -0.0 0.0 0.0 -0.0 0.0 0.0 2.03449e-13 2.16061e-13 8.33162e-13 -63.9622 -77.6933 -109.759 -5.62607 -1.88038 9.81734 -154.689 62.0251 164.594 -2.24467e-09 1.59963e-09 -4.60315e-10 -3.76244e-09 2.87246e-09 -4.33058e-10 -2.24466e-09 1.59963e-09 -4.60314e-10 7.73091 5.47488 0.417314 -2.24468e-09 1.59963e-09 -4.60311e-10 2.90554 0.965183 0.102902 -2.24467e-09 1.59963e-09 -4.60313e-10 10.2786 0.731801 0.0259123 -2.24468e-09 1.59963e-09 -4.6031e-10 2.22167 -0.733487 -0.20892 2.03358e-13 2.16071e-13 8.32967e-13 -23.5828 -2.89891 -3.80925 8.08774 -3.0578 -14.2611 6.47648 56.1809 -12.1061 -8.02751e-09 -8.01846e-10 1.57674e-09 -1.37244e-08 -1.32468e-09 3.05774e-09 -8.02751e-09 -8.01843e-10 1.57677e-09 -7.73091 5.47488 -0.417314 -8.02751e-09 -8.01842e-10 1.57675e-09 -2.90554 0.965183 -0.102902 -8.02751e-09 -8.01842e-10 1.57675e-09 -10.2786 0.731801 -0.0259123 -8.0275e-09 -8.0184e-10 1.57673e-09 -2.22167 -0.733487 0.20892 -2.03217e-16 0.0 -3.88251e-19 10.2331 -42.5479 13.5157 -1.02467 58.8961 1.35773 -19.9883 -24.3938 -34.2203 2.03217e-16 0.0 3.88251e-19 28.386 -21.7019 -4.96678 0.438047 46.5636 -1.13177 18.025 -21.2398 34.4101
-42.1012 78.3618 56.7317 193.709 160.206 190.663 -13.3318 -18.2945 -2.67541 -3.52651 -2.88008 -0.149847 -4.06832 1.87943 -3.6209 11.4266 22.6542 -8.13777 -0.0 0.0 0.0 -0.0 0.0 0.0 1.11797e-13 1.87946e-13 5.40722e-13 -45.8275 -79.2128 -91.62 -5.43974 -1.80075 9.48525 -152.896 64.5434 162.593 -7.67441e-10 4.60837e-10 -2.83362e-10 -1.27572e-09 9.35066e-10 -3.07195e-10 -7.6743e-10 4.60834e-10 -2.83365e-10 7.73091 5.47488 0.417314 -7.67442e-10 4.60835e-10 -2.83363e-10 2.90554 0.965183 0.102902 -7.67439e-10 4.60835e-10 -2.83363e-10 10.2786 0.731801 0.0259123 -7.67445e-10 4.60836e-10 -2.83359e-10 2.22167 -0.733487 -0.20892 1.11772e-13 1.87956e-13 5.40527e-13 -25.5809 -3.45591 -5.62982 8.11781 -3.07364 -14.3161 6.99299 57.4726 -12.7243 -5.35917e-09 -4.36683e-10 1.53683e-09 -9.1365e-09 -7.1643e-10 2.87762e-09 -5.35917e-09 -4.36682e-10 1.53685e-09 -7.73091 5.47488 -0.417314 -5.35917e-09 -4.36682e-10 1.53683e-09 -2.90554 0.965183 -0.102902 -5.35917e-09 -4.36682e-10 1.53683e-09 -10.2786 0.731801 -0.0259123 -5.35916e-09 -4.3668e-10 1.53682e-09 -2.22167 -0.733487 0.20892 -2.03217e-16 0.0 -3.88251e-19 8.76642 -42.5861 13.1496 -1.09737 60.1494 1.458 -19.8495 -24.9224 -33.5362 2.03217e-16 0.0 3.88251e-19 27.2599 -22.785 -6.15352 0.456485 46.8734 -1.08758 16.6766 -18.7232 34.7165
-42.2651 77.7743 57.3291 192.691 162.514 189.637 -11.4648 -16.6566 -1.65275 -4.04744 -3.13994 -0.0523925 -4.0571 1.61656 -3.18085 11.4445 21.9788 -7.21279 -0.0 0.0 0.0 -0.0 0.0 0.0 4.25862e-14 1.402e-13 2.26862e-13 -18.6255 -78.8979 -64.2816 -5.24355 -1.71767 9.13682 -149.852 68.0477 159.279 6.61417e-10 -6.68051e-10 -3.86105e-11 1.13157e-09 -9.97305e-10 -6.76995e-11 6.61426e-10 -6.68051e-10 -3.8617e-11 7.73091 5.47488 0.417314 6.61417e-10 -6.68051e-10 -3.86147e-11 2.90554 0.965183 0.102902 6.61421e-10 -6.68051e-10 -3.86121e-11 10.2786 0.731801 0.0259123 6.61415e-10 -6.68052e-10 -3.86077e-11 2.22167 -0.733487 -0.20892 4.26195e-14 1.4021e-13 2.26664e-13 -27.5736 -3.68479 -7.55791 8.14609 -3.08856 -14.3679 7.50195 58.6322 -13.3235 -2.47231e-09 1.45406e-12 1.54566e-09 -4.17146e-09 1.72531e-11 2.77133e-09 -2.47232e-09 1.45117e-12 1.54567e-09 -7.73091 5.47488 -0.417314 -2.47231e-09 1.45109e-12 1.54566e-09 -2.90554 0.965183 -0.102902 -2.47231e-09 1.45016e-12 1.54566e-09 -10.2786 0.731801 -0.0259123 -2.4723e-09 1.45389e-12 1.54565e-09 -2.22167 -0.733487 0.20892 -2.03217e-16 0.0 -3.88251e-19 7.31468 -42.2226 12.6824 -1.15147 61.0491 1.54004 -19.6933 -25.4354 -32.8769 2.03217e-16 0.0 3.88251e-19 26.0828 -23.7646 -7.2419 0.472992 47.1251 -1.03633 15.1032 -16.2532 34.6772
